:SAMPLES-PER-SECOND 30
:FULLY-SPECIFIED
:DEGREES
366
root  34.82092309 36.57944446 -14.21226742 9.519893646 -4.060665131 3.142362118
lowerback  -8.708809853 -0.3120639324 -0.196743831
upperback  -3.920289993 0.06923359632 -3.225322485
thorax  0.8262019753 0.1906089932 -3.204540014
lowerneck  -15.00529957 -4.098100185 -2.801259995
upperneck  17.29840088 -6.036209583 6.963600159
head  8.145039558 -2.208177328 2.108109951
lclavicle  0 -4.497500157e-015 -2.743230041e-014
lhumerus  -47.08119965 30.47430038 63.33440018
lradius  -1.808929142e-006 -6.507048965e-006 29.82430267
lwrist  3.192251654e-007 -3.790274832e-007 -28.0272007
lhand  -0 -36.78039932 -10.85849953
lfingers  90 7.125020027 -90
lthumb  94.79866127 -25.69522209 100.9578002
rclavicle  0 -4.497500157e-015 -2.743230041e-014
rhumerus  -48.75559998 -38.36830139 -49.563797
rradius  -5.16745672e-007 2.214343908e-008 42.80339813
rwrist  0.0006954420824 -0.004670973402 -151.2030029
rhand  -3.550302494e-031 5.957940102 -7.883460045
rfingers  -90 -7.125020027 -90
rthumb  -84.89090132 -8.338041948 -58.34414349
rfemur  -10.81451035 15.26557159 12.89189243
rtibia  0.1348394156 -0.8358793855 18.03720284
rfoot  1.318657875 -21.62327194 -35.74669266
rtoes  4.286991201 19.55354346 -102.6245368
lfemur  -4.111117363 -15.55737019 -21.86626816
ltibia  6.158435345 0.10913679 8.161623001
lfoot  0.1981167495 -22.55233765 35.61045074
ltoes  -8.542737011 -18.15167255 -115.7421978
367
root  34.82181219 36.57941743 -14.21147144 9.527348518 -4.079112053 3.133460283
lowerback  -8.741839409 -0.2992140055 -0.2016676068
upperback  -3.90576005 0.08724489808 -3.224409103
thorax  0.8604239821 0.1996839941 -3.203870058
lowerneck  -15.04339981 -4.107870102 -2.795030117
upperneck  17.35280037 -6.048069477 6.936029911
head  8.169480324 -2.207638741 2.096220016
lclavicle  0 -4.497500157e-015 -2.743230041e-014
lhumerus  -47.03509903 30.41710091 63.41379929
lradius  -1.808929142e-006 -6.507048965e-006 29.81529999
lwrist  3.192251654e-007 -3.790274832e-007 -27.95219994
lhand  -4.407470524e-031 -36.7582016 -10.9708004
lfingers  90 7.125020027 -90
lthumb  94.81183546 -25.80629 100.9442898
rclavicle  0 -4.497500157e-015 -2.743230041e-014
rhumerus  -49.07589722 -39.57410049 -48.55880356
rradius  -5.16745672e-007 2.214343908e-008 40.90029907
rwrist  0.0006954420824 -0.004670973402 -149.1959991
rhand  -1.775798045e-031 6.154669762 -7.952970028
rfingers  -90 -7.125020027 -90
rthumb  -84.88115436 -8.293265928 -58.15794366
rfemur  -10.79226685 15.25986767 12.88608074
rtibia  0.1506142765 -0.8594555855 17.97979927
rfoot  1.337898731 -21.65558434 -35.73789215
rtoes  4.274700143 19.55613368 -102.5878151
lfemur  -4.229584694 -15.55684471 -21.80959702
ltibia  6.061294556 0.1093002036 8.349977493
lfoot  0.2098732293 -22.62911034 35.59917831
ltoes  -8.555800323 -18.1456815 -115.7841368
368
root  34.82271029 36.57953458 -14.21043366 9.542827606 -4.097666264 3.132325411
lowerback  -8.766589165 -0.2881749868 -0.1949324459
upperback  -3.881089926 0.1000680029 -3.222692251
thorax  0.9002640247 0.2054090053 -3.203130007
lowerneck  -15.10299969 -4.10936451 -2.785259962
upperneck  17.40209961 -6.047533512 6.895319939
head  8.19459343 -2.207137585 2.081002951
lclavicle  0 -4.497500157e-015 -2.743230041e-014
lhumerus  -46.99869919 30.51860046 63.40240097
lradius  -1.808929142e-006 -6.507048965e-006 29.75500107
lwrist  3.192251654e-007 -3.790274832e-007 -28.08949852
lhand  -4.408453355e-031 -36.77529907 -11.00730038
lfingers  90 7.125020027 -90
lthumb  94.82768156 -25.84152148 100.9660191
rclavicle  0 -4.497500157e-015 -2.743230041e-014
rhumerus  -49.55619812 -40.94480133 -47.42139816
rradius  -5.16745672e-007 2.214343908e-008 39.10169983
rwrist  0.0006954420824 -0.004670973402 -147.0650024
rhand  -1.77410889e-031 5.626170158 -7.877789974
rfingers  -90 -7.125020027 -90
rthumb  -84.96599728 -8.319180244 -58.66666182
rfemur  -10.78557491 15.22565174 12.87087822
rtibia  0.1647292823 -0.9008805752 17.93288231
rfoot  1.354707837 -21.7205677 -35.71286392
rtoes  4.236504541 19.56413305 -102.473729
lfemur  -4.329926968 -15.54157543 -21.76947975
ltibia  5.994230747 0.1144004837 8.490983009
lfoot  0.2324752957 -22.70295715 35.5998764
ltoes  -8.569538876 -18.13936847 -115.828258
369
root  34.82374657 36.57960666 -14.2096542 9.560051918 -4.119278431 3.141158581
lowerback  -8.798780441 -0.2746329606 -0.1660660803
upperback  -3.851769924 0.1145939976 -3.219140053
thorax  0.9490619898 0.2117139995 -3.221479893
lowerneck  -15.14109993 -4.107167244 -2.748059988
upperneck  17.40990067 -6.041778088 6.843299866
head  8.200900078 -2.20695281 2.057169914
lclavicle  0 -4.497500157e-015 -2.743230041e-014
lhumerus  -46.95059967 30.59819984 63.39810181
lradius  -1.808929142e-006 -6.507048965e-006 29.70610046
lwrist  3.192251654e-007 -3.790274832e-007 -28.1779995
lhand  -4.41078481e-031 -36.81579971 -11.06540012
lfingers  90 7.125020027 -90
lthumb  94.85926523 -25.8970218 101.0148557
rclavicle  0 -4.497500157e-015 -2.743230041e-014
rhumerus  -50.28340149 -42.32870102 -46.16139603
rradius  -5.16745672e-007 2.214343908e-008 37.60070038
rwrist  0.0006954420824 -0.004670973402 -144.9250031
rhand  -1.774309406e-031 5.691520214 -7.717480183
rfingers  -90 -7.125020027 -90
rthumb  -84.86628336 -8.460600556 -58.59072021
rfemur  -10.82381344 15.22589588 12.85749912
rtibia  0.1602836251 -0.8977942467 17.95808029
rfoot  1.367865443 -21.69790649 -35.66118622
rtoes  4.248624242 19.56160299 -102.5099244
lfemur  -4.369827747 -15.52473545 -21.76813889
ltibia  5.982102871 0.1198516637 8.519824028
lfoot  0.2457716912 -22.7229023 35.61571503
ltoes  -8.580098231 -18.13450772 -115.8621794
370
root  34.82444943 36.57936637 -14.20894533 9.56994915 -4.132703781 3.151085377
lowerback  -8.803440094 -0.266463995 -0.1720686257
upperback  -3.840189934 0.1244969964 -3.209909916
thorax  0.9641759992 0.2162380069 -3.207530022
lowerneck  -15.18350029 -4.10413456 -2.727070093
upperneck  17.44759941 -6.036672115 6.796659946
head  8.218472481 -2.207363605 2.038355589
lclavicle  0 -4.497500157e-015 -2.743230041e-014
lhumerus  -46.90200043 30.58959961 63.44400024
lradius  -1.808929142e-006 -6.507048965e-006 29.6774025
lwrist  3.192251654e-007 -3.790274832e-007 -28.18040085
lhand  -4.411499652e-031 -36.82820129 -11.00870037
lfingers  90 7.125020027 -90
lthumb  94.85309347 -25.84094863 101.0228234
rclavicle  0 -4.497500157e-015 -2.743230041e-014
rhumerus  -51.04910278 -43.51900482 -44.92179489
rradius  -5.16745672e-007 2.214343908e-008 36.35100174
rwrist  0.0006954420824 -0.004670973402 -142.496994
rhand  -1.774971878e-031 5.902200222 -8.024149895
rfingers  -90 -7.125020027 -90
rthumb  -84.97855035 -8.214235173 -58.4091006
rfemur  -10.84223557 15.22452736 12.83972454
rtibia  0.1548626274 -0.89242661 17.9699688
rfoot  1.376181245 -21.67246628 -35.63214493
rtoes  4.257695292 19.55970437 -102.5370179
lfemur  -4.334442616 -15.53021526 -21.80404472
ltibia  6.021784782 0.12141864 8.446890831
lfoot  0.2491080761 -22.70092201 35.64495087
ltoes  -8.584308196 -18.13256768 -115.8757061
371
root  34.82535655 36.57969978 -14.20828001 9.587427139 -4.151364326 3.140902758
lowerback  -8.822179794 -0.2533889711 -0.1826553792
upperback  -3.818170071 0.1416990012 -3.208090067
thorax  0.9982550144 0.2244590074 -3.198029995
lowerneck  -15.23320007 -4.10311985 -2.725749969
upperneck  17.48450089 -6.034820557 6.767429829
head  8.238649368 -2.208648682 2.02773571
lclavicle  0 -4.497500157e-015 -2.743230041e-014
lhumerus  -46.84289932 30.60379982 63.49539948
lradius  -1.808929142e-006 -6.507048965e-006 29.6439991
lwrist  3.192251654e-007 -3.790274832e-007 -28.11770058
lhand  -4.412139666e-031 -36.83929825 -11.00139999
lfingers  90 7.125020027 -90
lthumb  94.85682978 -25.8333656 101.0340828
rclavicle  0 -4.497500157e-015 -2.743230041e-014
rhumerus  -52.01250076 -44.80759811 -43.51119995
rradius  -5.16745672e-007 2.214343908e-008 35.11360168
rwrist  0.0006954420824 -0.004670973402 -140.572998
rhand  -1.775084756e-031 5.937339783 -7.958809853
rfingers  -90 -7.125020027 -90
rthumb  -84.93568964 -8.272437901 -58.369931
rfemur  -10.84805965 15.20547485 12.83368206
rtibia  0.1650763452 -0.9126272798 17.94327927
rfoot  1.369252205 -21.71511459 -35.64217758
rtoes  4.260104463 19.55919941 -102.5442141
lfemur  -4.384780407 -15.56801701 -21.77664185
ltibia  5.983792782 0.1115331054 8.509382248
lfoot  0.2447126955 -22.69307327 35.6684494
ltoes  -8.576535778 -18.13614845 -115.8507342
372
root  34.8254797 36.5799641 -14.20745549 9.601384163 -4.152718544 3.145704031
lowerback  -8.816959381 -0.240309909 -0.1942874491
upperback  -3.806250095 0.158059001 -3.19656992
thorax  1.008620024 0.2321169972 -3.177850008
lowerneck  -15.27350044 -4.106200218 -2.700040102
upperneck  17.51210022 -6.036419868 6.710909843
head  8.252438545 -2.211087465 2.003806829
lclavicle  0 -4.497500157e-015 -2.743230041e-014
lhumerus  -46.82849884 30.7201004 63.46910095
lradius  -1.808929142e-006 -6.507048965e-006 29.58670044
lwrist  3.192251654e-007 -3.790274832e-007 -28.24180031
lhand  -4.41305156e-031 -36.85509872 -11.10149956
lfingers  90 7.125020027 -90
lthumb  94.8856707 -25.93100231 101.0603435
rclavicle  0 -4.497500157e-015 -2.743230041e-014
rhumerus  -53.10639954 -45.88000107 -42.15069962
rradius  -5.16745672e-007 2.214343908e-008 34.09400177
rwrist  0.0006954420824 -0.004670973402 -139.5570068
rhand  -1.775176063e-031 5.965610027 -7.932149887
rfingers  -90 -7.125020027 -90
rthumb  -84.91486128 -8.297205292 -58.34031584
rfemur  -10.85997581 15.16263485 12.81940651
rtibia  0.165356636 -0.9399690628 17.9451046
rfoot  1.357969999 -21.7771759 -35.62540436
rtoes  4.280013582 19.55501488 -102.6036894
lfemur  -4.33692646 -15.56816006 -21.81022453
ltibia  6.033680439 0.1011137813 8.406974792
lfoot  0.2268006504 -22.62039375 35.66054535
ltoes  -8.558847021 -18.1442826 -115.7939199
